<?xml version="1.0" encoding="UTF-8" standalone="no"?>
<!-- Created with Inkscape (http://www.inkscape.org/) -->

<svg
   xmlns:dc="http://purl.org/dc/elements/1.1/"
   xmlns:cc="http://creativecommons.org/ns#"
   xmlns:rdf="http://www.w3.org/1999/02/22-rdf-syntax-ns#"
   xmlns:svg="http://www.w3.org/2000/svg"
   xmlns="http://www.w3.org/2000/svg"
   xmlns:xlink="http://www.w3.org/1999/xlink"
   xmlns:sodipodi="http://sodipodi.sourceforge.net/DTD/sodipodi-0.dtd"
   xmlns:inkscape="http://www.inkscape.org/namespaces/inkscape"
   width="63.000004mm"
   height="88mm"
   id="svg3221"
   version="1.1"
   inkscape:version="0.92.2 2405546, 2018-03-11"
   sodipodi:docname="pirate.svg"
   viewBox="0 0 223.22835 311.811">
  <defs
     id="defs3223">
    <inkscape:path-effect
       effect="skeletal"
       id="path-effect3026"
       is_visible="true"
       pattern="m 0,5 10,5 V 0 Z"
       copytype="single_stretched"
       prop_scale="1"
       scale_y_rel="false"
       spacing="0"
       normal_offset="0"
       tang_offset="0"
       prop_units="false"
       vertical_pattern="false"
       fuse_tolerance="0" />
    <linearGradient
       id="linearGradient4063">
      <stop
         style="stop-color:#ffffff;stop-opacity:1;"
         offset="0"
         id="stop4065" />
      <stop
         id="stop4071"
         offset="0.05660377"
         style="stop-color:#000000;stop-opacity:1;" />
      <stop
         style="stop-color:#000000;stop-opacity:1;"
         offset="0.94339621"
         id="stop4073" />
      <stop
         style="stop-color:#ffffff;stop-opacity:1;"
         offset="1"
         id="stop4067" />
    </linearGradient>
    <clipPath
       id="clipPath3911"
       clipPathUnits="userSpaceOnUse">
      <path
         id="path3913"
         d="M 0,0 V 7017 H 4958 V 0 Z"
         inkscape:connector-curvature="0" />
    </clipPath>
    <clipPath
       id="clipPath3899"
       clipPathUnits="userSpaceOnUse">
      <path
         id="path3901"
         d="M 0,0 V 7017 H 4958 V 0 Z"
         inkscape:connector-curvature="0" />
    </clipPath>
    <clipPath
       id="clipPath3887"
       clipPathUnits="userSpaceOnUse">
      <path
         id="path3889"
         d="M 126,0 V 7017 H 4958 V 0 Z"
         inkscape:connector-curvature="0" />
    </clipPath>
  </defs>
  <sodipodi:namedview
     id="base"
     pagecolor="#ffffff"
     bordercolor="#666666"
     borderopacity="1.0"
     inkscape:pageopacity="0.0"
     inkscape:pageshadow="2"
     inkscape:zoom="2"
     inkscape:cx="47.046957"
     inkscape:cy="211.29854"
     inkscape:document-units="mm"
     inkscape:current-layer="layer5"
     showgrid="true"
     units="mm"
     showguides="false"
     inkscape:guide-bbox="true"
     inkscape:snap-grids="true"
     inkscape:snap-page="false"
     inkscape:snap-to-guides="true"
     inkscape:window-width="1916"
     inkscape:window-height="1036"
     inkscape:window-x="0"
     inkscape:window-y="20"
     inkscape:window-maximized="1"
     inkscape:snap-global="true"
     inkscape:snap-bbox="false"
     inkscape:snap-nodes="true"
     inkscape:snap-text-baseline="true">
    <inkscape:grid
       type="xygrid"
       id="grid3229"
       empspacing="5"
       visible="true"
       enabled="true"
       snapvisiblegridlinesonly="true"
       units="mm"
       spacingx="3.543307"
       spacingy="3.5433069"
       originx="0"
       originy="0" />
    <sodipodi:guide
       orientation="0,1"
       position="0,322.44093"
       id="guide3231"
       inkscape:locked="false" />
    <sodipodi:guide
       orientation="0,1"
       position="0,301.18109"
       id="guide3233"
       inkscape:locked="false" />
    <sodipodi:guide
       orientation="1,0"
       position="-10.629921,311.81101"
       id="guide3237"
       inkscape:locked="false" />
    <sodipodi:guide
       orientation="1,0"
       position="10.629921,311.81101"
       id="guide3239"
       inkscape:locked="false" />
    <sodipodi:guide
       orientation="1,0"
       position="106.29921,311.81101"
       id="guide3241"
       inkscape:locked="false" />
    <sodipodi:guide
       orientation="1,0"
       position="116.92913,311.81101"
       id="guide3243"
       inkscape:locked="false" />
    <sodipodi:guide
       orientation="0,1"
       position="0,152.36219"
       id="guide3245"
       inkscape:locked="false" />
    <sodipodi:guide
       orientation="0,1"
       position="0,159.44881"
       id="guide3247"
       inkscape:locked="false" />
    <sodipodi:guide
       orientation="1,0"
       position="233.85826,0"
       id="guide3249"
       inkscape:locked="false" />
    <sodipodi:guide
       orientation="1,0"
       position="212.59842,0"
       id="guide3251"
       inkscape:locked="false" />
    <sodipodi:guide
       orientation="0,1"
       position="223.22834,10.629921"
       id="guide3253"
       inkscape:locked="false" />
    <sodipodi:guide
       orientation="0,1"
       position="223.22834,-10.629921"
       id="guide3255"
       inkscape:locked="false" />
  </sodipodi:namedview>
  <metadata
     id="metadata3226">
    <rdf:RDF>
      <cc:Work
         rdf:about="">
        <dc:format>image/svg+xml</dc:format>
        <dc:type
           rdf:resource="http://purl.org/dc/dcmitype/StillImage" />
        <dc:title></dc:title>
      </cc:Work>
    </rdf:RDF>
  </metadata>
  <g
     inkscape:groupmode="layer"
     id="layer8"
     inkscape:label="Trash"
     sodipodi:insensitive="true"
     style="display:none">
    <g
       style="display:inline"
       id="g3802"
       transform="translate(-5.7070273e-7,79.724393)">
      <path
         sodipodi:nodetypes="ccccc"
         inkscape:connector-curvature="0"
         id="path3796"
         d="m 21.259843,76.1811 85.039367,-1.771654 -1.77165,1.771654 1.77165,1.771649 z"
         style="fill:#000000;fill-opacity:1;stroke:none" />
      <use
         height="311.811"
         width="223.22835"
         transform="matrix(-1,0,0,1,223.22835,0)"
         id="use3798"
         xlink:href="#path3796"
         y="0"
         x="0" />
      <path
         inkscape:connector-curvature="0"
         id="path3800"
         d="m 109.84252,76.1811 1.77165,-1.771654 1.77165,1.771654 -1.77165,1.771649 z"
         style="fill:#000000;fill-opacity:1;stroke:none" />
    </g>
  </g>
  <g
     inkscape:groupmode="layer"
     id="layer3"
     inkscape:label="Frames"
     style="display:none"
     transform="translate(0,88.582661)"
     sodipodi:insensitive="true">
    <rect
       style="fill:#cccccc;fill-opacity:1;stroke:none"
       id="rect3273"
       width="173.62204"
       height="205.51181"
       x="24.80315"
       y="-35.433075" />
    <rect
       style="fill:#cccccc;fill-opacity:1;stroke:none"
       id="rect4165"
       width="173.62204"
       height="63.779518"
       x="24.80315"
       y="116.92913" />
    <rect
       style="display:inline;fill:#cccccc;stroke:none"
       id="rect4127"
       width="173.62204"
       height="17.716539"
       x="24.80315"
       y="95.669289" />
  </g>
  <g
     inkscape:groupmode="layer"
     id="layer5"
     inkscape:label="Buyoff"
     transform="translate(0,88.582661)"
     style="display:inline">
    <flowRoot
       xml:space="preserve"
       style="font-style:normal;font-variant:normal;font-weight:500;font-stretch:normal;line-height:0.01%;font-family:OptimusPrinceps;-inkscape-font-specification:'OptimusPrinceps Medium';text-align:center;letter-spacing:0px;word-spacing:0px;writing-mode:lr-tb;text-anchor:middle;display:inline;fill:#000000;fill-opacity:1;stroke:none"
       id="flowRoot4157"
       transform="matrix(1.3935061,0,0,1.3935061,0.1049079,-21.282422)"><flowRegion
         id="flowRegion4159"><use
           x="0"
           y="0"
           xlink:href="#rect4127"
           id="use4161"
           width="155.9055"
           height="223.22835"
           transform="matrix(0.71761437,0,0,0.71761437,-0.075283,26.50751)" /></flowRegion><flowPara
         id="flowPara4163"
         style="font-size:10.0466013px;line-height:1">Rachat</flowPara></flowRoot>    <flowRoot
       xml:space="preserve"
       style="font-style:normal;font-variant:normal;font-weight:normal;font-stretch:normal;line-height:0.01%;font-family:ParmaPetit;-inkscape-font-specification:ParmaPetit;text-align:justify;letter-spacing:0px;word-spacing:0px;writing-mode:lr-tb;text-anchor:start;display:inline;fill:#000000;fill-opacity:1;stroke:none"
       id="flowRoot4167"
       transform="matrix(1.3935061,0,0,1.3935061,-0.0186778,-79.450215)"><flowRegion
         id="flowRegion4169"><use
           x="0"
           y="0"
           xlink:href="#rect4165"
           id="use4171"
           width="155.9055"
           height="223.22835"
           transform="matrix(0.71761436,0,0,0.71761436,0.01427165,64.453932)" /></flowRegion><flowPara
         id="flowPara6255"
         style="font-size:9.32898712px;line-height:100%">Tournez la page et marchez droit.</flowPara></flowRoot>  </g>
  <g
     inkscape:groupmode="layer"
     id="layer2"
     inkscape:label="Text"
     transform="translate(0,88.582661)"
     style="display:inline">
    <flowRoot
       xml:space="preserve"
       style="font-style:normal;font-variant:normal;font-weight:normal;font-stretch:normal;line-height:0.01%;font-family:ParmaPetit;-inkscape-font-specification:ParmaPetit;text-align:justify;letter-spacing:0px;word-spacing:0px;writing-mode:lr-tb;text-anchor:start;display:inline;fill:#000000;fill-opacity:1;stroke:none"
       id="flowRoot3285"
       transform="matrix(1.3935061,0,0,1.3935061,-0.0186778,-36.850783)"><flowRegion
         id="flowRegion3287"><use
           x="0"
           y="0"
           xlink:href="#rect3273"
           id="use3289"
           width="155.9055"
           height="223.22835"
           transform="matrix(0.71761436,0,0,0.71761436,0.01427165,64.459838)" /></flowRegion><flowPara
         style="font-size:9.32898712px;line-height:1"
         id="flowPara7309">Vous volez, pillez et terrorisez l’Indomptable Azur. Enclenchez cette clé quand vous impressionnez quelqu’un par votre attitude de pirate ou quand vous faites quelque chose pour renforcer votre réputation.</flowPara></flowRoot>  </g>
  <g
     inkscape:groupmode="layer"
     id="layer4"
     inkscape:label="Title"
     transform="translate(0,88.582661)"
     style="display:inline">
    <text
       xml:space="preserve"
       style="font-style:normal;font-variant:normal;font-weight:500;font-stretch:normal;line-height:0%;font-family:OptimusPrinceps;-inkscape-font-specification:'OptimusPrinceps Medium';text-align:center;letter-spacing:-1.39999998px;word-spacing:0px;writing-mode:lr-tb;text-anchor:middle;fill:#000000;fill-opacity:1;stroke:none"
       x="111.6128"
       y="8.5707664"
       id="text3263"><tspan
         sodipodi:role="line"
         x="110.9128"
         y="8.5707664"
         id="tspan3366"
         style="font-size:18px;line-height:1">Cle du Pirate</tspan></text>
  </g>
  <g
     inkscape:label="Border"
     inkscape:groupmode="layer"
     id="layer1"
     transform="translate(0,-740.55119)"
     style="display:inline"
     sodipodi:insensitive="true">
    <path
       style="fill:#000000;fill-opacity:1;stroke:none"
       d="M 10.625,0 C 4.7360238,0 0,4.7360238 0,10.625 v 290.5625 c 0,5.88898 4.7360238,10.625 10.625,10.625 h 201.96875 c 5.88898,0 10.625,-4.73602 10.625,-10.625 V 10.625 C 223.21875,4.7360238 218.48273,0 212.59375,0 Z m 0,10.625 H 212.59375 V 301.1875 H 10.625 Z"
       transform="translate(0,740.55119)"
       id="rect3267"
       inkscape:connector-curvature="0" />
  </g>
  <g
     inkscape:groupmode="layer"
     id="layer7"
     inkscape:label="Ornament"
     sodipodi:insensitive="true">
    <path
       style="display:inline;fill:#000000"
       d="m 12.321645,152.03883 c 0,-0.17784 -0.1432,-0.45486 -0.3181,-0.61558 -0.3449,-0.31691 -0.4322,-1.30265 -0.1334,-1.50706 0.3831,-0.26212 0.4499,-1.56375 0.1097,-2.13849 -0.2782,-0.46996 -0.311,-0.98234 -0.1908,-2.97972 0.1358,-2.25566 0.116,-2.44643 -0.3055,-2.94033 -0.2479,-0.29049 -0.5424,-0.52816 -0.6545,-0.52816 -0.3152,0 -0.2407,-0.61286 0.1143,-0.93895 0.1749,-0.16073 0.318,-0.46943 0.318,-0.68601 0,-0.21659 0.096,-0.50039 0.214,-0.63068 0.1431,-0.15838 0.2111,-41.963026 0.2111,-41.963026 V 21.317383 l -0.4621,-1.0568 c -0.6182,-1.41367 -0.7599,-3.35278 -0.3017,-4.12703 0.2972,-0.5021 0.3143,-0.81659 0.1196,-2.20538 -0.1381,-0.9852 -0.1546,-1.92942 -0.042,-2.41013 l 0.1849,-0.79033 3.9629,-0.0383 c 3.8022,-0.0367 4.0036,-0.0154 4.9696,0.52718 l 1.0068,0.56548 37.985258,9.4e-4 c 0,0 35.07321,0.0213 35.59061,-0.87799 0.2583,-0.44886 0.5964,-0.35726 1.2534,0.3395 0.6572,0.69698 1.0684,0.7447 3.677,0.42673 1.209497,-0.14744 1.624797,-0.10809 2.173497,0.20601 0.373,0.21355 0.6782,0.49119 0.6782,0.61698 0,0.41268 0.9579,0.23915 1.3291,-0.24077 0.4603,-0.59513 0.8899,-0.59513 1.4275,0 0.2332,0.25822 0.5672,0.46948 0.7421,0.46948 0.2578,0 0.3181,0.37819 0.3181,1.99528 0,1.79541 -0.04,1.99528 -0.3981,1.99528 -0.219,0 -0.5169,0.15844 -0.6621,0.3521 -0.3625,0.48349 -0.65731,0.444969 -1.7232,-0.22529 l -0.9182,-0.57739 -0.5016,0.51871 c -0.46976,0.485784 -0.6696,0.514712 -3.144997,0.45609 l -2.6434,-0.0626 -0.6345,0.70243 c -0.4625,0.51197 -0.7321,0.6497 -0.9945,0.50796 -1.9294,-1.04252 -20.92281,-0.91159 -20.92281,-0.91159 l -23.157258,0.0612 1.0603,0.69444 c 0.5831,0.38195 1.282,0.66385 1.553,0.62645 0.4271,-0.0589 0.4837,0.0207 0.4241,0.59662 -0.054,0.52726 -0.1783,0.66761 -0.5989,0.67909 -0.8466,0.0231 -2.5444,0.83771 -2.7855,1.33651 -0.2143,0.44335 -0.238,0.43958 -0.7852,-0.12481 -0.7735,-0.79788 -1.3736,-1.10876 -2.1405,-1.10876 -0.5521,0 -0.6501,0.0885 -0.6501,0.58684 v 0.58685 h -3.3542 c -3.6444,0 -4.9304,0.26419 -6.4478,1.32461 -1.3378,0.93487 -2.621,2.58285 -3.1078,3.9912 -0.5238,1.51528 -0.5595,1.96108 -0.1569,1.96108 0.533,0 0.8238,-0.6546 0.6766,-1.52322 -0.1726,-1.01849 -0.015,-1.03118 0.8793,-0.0711 l 0.7019,0.7531 0.6434,-0.42077 c 0.5955,-0.38946 0.6822,-0.39269 1.1636,-0.0435 0.9314,0.6756 0.5984,2.24439 -0.4765,2.24439 -0.4079,0 -0.4884,0.12482 -0.4923,0.7629 0,0.41959 -0.1934,1.22337 -0.4241,1.78617 -0.2307,0.5628 -0.4194,1.05412 -0.4194,1.09182 0,0.0377 0.3504,0.29746 0.7788,0.57724 l 0.7788,0.50869 -0.8996,0.59384 c -0.6576,0.43414 -0.8632,0.69811 -0.7644,0.98161 0.3181,0.91318 0.6051,2.37871 0.4905,2.50549 -0.068,0.0756 -0.6798,-0.0622 -1.3588,-0.30624 l -1.2347,-0.44377 -0.4326,0.70648 c -0.456,0.74453 -0.9628,1.07965 -0.9628,0.63661 0,-0.14441 -0.1561,-0.5263 -0.3469,-0.84865 -0.3114,-0.52615 -0.3827,-0.55023 -0.6969,-0.23543 -0.548,0.54903 -1.8395,1.07278 -2.6454,1.07278 -0.5887,0 -0.7476,0.1 -0.802,0.50419 -0.1021,0.76007 -0.6628,1.0538 -1.3499,0.70724 -0.5411,-0.27294 -0.5652,-0.35271 -0.4352,-1.43768 0.1315,-1.09715 0.1088,-1.16754 -0.5038,-1.56817 -0.7977,-0.52166 -0.8699,-1.09487 -0.1113,-0.8841 0.8643,0.24016 1.5276,-0.0616 1.6463,-0.74892 0.1,-0.57829 0.065,-0.60823 -0.5712,-0.4939 -1.7525,0.31483 -4.6436,2.71326 -5.4899,4.55439 -0.5715,1.24321 -0.9784,3.71439 -1.123,6.8199 -0.1421,3.05292 -0.1539,3.11028 -0.6379,3.11028 -0.4417,0 -0.4795,0.0796 -0.363,0.7629 0.072,0.4196 0.4484,1.26098 0.8373,1.86975 0.5491,0.85954 0.6433,1.148 0.4215,1.29106 -0.4391,0.28329 -1.4473,2.65599 -1.3334,3.13803 0.056,0.23544 -0.026,0.61784 -0.1821,0.84978 -0.2274,0.33852 -0.3589,0.36885 -0.6668,0.15375 -0.214,-0.14959 -0.3604,-0.49144 -0.3312,-0.77387 0.029,-0.27825 -0.1621,-0.94992 -0.4241,-1.49259 l -0.4763,-0.98667 c 0,0 -0.02123,-0.419976 -0.055,11.488191 -0.03377,11.908167 -0.05152,43.312086 -0.053,59.960946 0,0 0.037,13.12065 0.318,13.37863 0.175,0.16073 0.3181,0.53813 0.3181,0.83867 0,0.30054 0.167,0.65241 0.3711,0.78194 0.3442,0.2185 0.3378,0.26179 -0.09,0.59924 -0.7284,0.57487 -0.9563,1.68847 -0.7213,3.52527 0.2522,1.97108 0.1134,2.82128 -0.5557,3.4039 -0.5414,0.47147 -0.4744,0.98016 0.2123,1.61107 0.3587,0.32956 0.2227,1.42898 -0.1989,1.60808 -0.1595,0.0678 -0.29,0.27035 -0.29,0.4502 0,0.25385 -0.4032,0.32699 -1.8024,0.32699 -1.3896,0 -1.8024,-0.0741 -1.8024,-0.32337 z m 2.4953,-0.31383 c -0.3187,-0.0536 -0.8912,-0.0546 -1.2723,-0.002 -0.3811,0.0522 -0.1204,0.0961 0.5793,0.0974 0.6998,0.001 1.0116,-0.0414 0.693,-0.095 z m 1.2353,-0.80684 c 0.2851,-0.5106 -0.5976,-0.90343 -2.0218,-0.89975 -1.4595,0.004 -2.1826,0.27304 -1.8131,0.67516 0.3971,0.43214 3.6139,0.62053 3.8349,0.22459 z m -1.4474,-1.54055 c -0.3186,-0.0536 -0.8911,-0.0546 -1.2722,-0.002 -0.3811,0.0522 -0.1205,0.0961 0.5793,0.0974 0.6997,0.001 1.0116,-0.0414 0.6929,-0.095 z m 0.2185,-1.14387 c 0.089,-0.68658 -0.4862,-1.19175 -0.9114,-0.80105 -0.3339,0.30681 -0.4233,0.97895 -0.1678,1.26184 0.2993,0.3313 1.0165,0.0251 1.0792,-0.46079 z m -0.6389,-1.50526 c 0.1912,0 0.5656,0.29049 0.832,0.64553 l 0.4842,0.64553 0.451,-0.58685 c 0.403498,-0.52504 0.4378,-0.77704 0.3262,-2.39484 -0.097,-1.39984 -0.2306,-1.943 -0.5944,-2.40607 -0.2583,-0.32894 -0.5479,-0.59807 -0.6435,-0.59807 -0.3239,0 -0.176,0.62925 0.2477,1.05378 0.2625,0.26295 0.4131,0.69748 0.3991,1.15139 -0.012,0.40098 0.051,1.1416 0.1416,1.64582 0.1202,0.6712 0.098,0.87184 -0.081,0.74905 -0.1348,-0.0923 -0.2451,-0.32518 -0.2451,-0.51763 0,-0.59536 -0.6304,-1.73503 -0.9597,-1.73503 -0.4026,0 -0.4,0.33168 0.01,0.70422 0.6875,0.6316 0.06,1.64903 -0.7286,1.18172 -0.5354,-0.31718 -0.5602,-0.87424 -0.067,-1.49096 0.2916,-0.36424 0.3029,-0.43961 0.053,-0.35177 -0.306,0.10758 -0.6581,0.72751 -0.9754,1.71733 -0.1397,0.43601 -0.157,0.43887 -0.2424,0.0401 -0.1435,-0.66971 0.107,-1.46341 0.714,-2.26196 0.7135,-0.93873 0.4792,-1.23954 -0.2692,-0.34557 -0.9639,1.15135 -1.1629,3.55537 -0.3367,4.06722 0.2509,0.15541 0.4475,0.0624 0.741,-0.35071 0.2197,-0.30924 0.556,-0.56225 0.7472,-0.56225 z m 1.1058,-2.81687 c -0.1249,-0.25821 -0.2747,-0.46947 -0.333,-0.46947 -0.058,0 0,0.21126 0.1209,0.46947 0.1249,0.25822 0.2747,0.46948 0.333,0.46948 0.058,0 0,-0.21126 -0.1209,-0.46948 z m -2.1118,-1.1872 c 0.5568,-0.86566 0.3449,-1.28155 -0.2305,-0.45246 -0.4353,0.62714 -0.5629,0.27302 -0.1841,-0.51063 0.2024,-0.41853 0.1783,-0.45797 -0.1991,-0.32539 -0.3087,0.10847 -0.4974,0.0101 -0.6715,-0.35 -0.1332,-0.27548 -0.2873,-0.45091 -0.3424,-0.38987 -0.055,0.0611 0.095,0.46622 0.3345,0.90038 0.2391,0.43416 0.435,1.02705 0.4355,1.31754 10e-4,0.7291 0.3107,0.66065 0.8576,-0.18957 z m 1.6809,-1.94991 c 0,-0.27574 -0.145,-0.70373 -0.3141,-0.9511 -0.2927,-0.42819 -0.3226,-0.40959 -0.6236,0.38773 -0.2826,0.74884 -0.2806,0.91621 0.019,1.58102 l 0.3351,0.74353 0.2952,-0.62993 c 0.1624,-0.34646 0.2922,-0.85552 0.2885,-1.13125 z m 1.6691,1.13079 c 0.302,-0.73367 0.3121,-1.04528 0.034,-1.04528 -0.1166,0 -0.212,0.15845 -0.212,0.35211 0,0.19366 -0.1432,0.35211 -0.3181,0.35211 -0.3228,0 -0.435,0.49656 -0.1767,0.78246 0.2522,0.27922 0.422,0.16781 0.6728,-0.4414 z m -2.9091,-2.21897 c 0.2622,-0.51642 0.6214,-0.93895 0.7981,-0.93895 0.2361,0 0.2588,-0.0694 0.085,-0.26124 -0.3328,-0.36842 -0.6352,-0.0925 -1.1226,1.02447 -0.4498,1.03054 -0.4747,1.11467 -0.3301,1.11467 0.051,0 0.307,-0.42252 0.5692,-0.93895 z m 1.47,-0.0848 c -0.297,-0.8647 -0.4634,-0.77885 -0.1877,0.0968 0.1241,0.39391 0.2649,0.67264 0.313,0.6194 0.048,-0.0532 -0.01,-0.37553 -0.1253,-0.7162 z m 1.4731,0.43692 c 0,-0.19366 -0.095,-0.35211 -0.212,-0.35211 -0.1166,0 -0.212,0.15845 -0.212,0.35211 0,0.19366 0.095,0.35211 0.212,0.35211 0.1166,0 0.212,-0.15845 0.212,-0.35211 z m -4.2408,-0.23474 c 0,-0.19366 -0.09,-0.3521 -0.1996,-0.3521 -0.2674,0 -0.4589,0.36656 -0.2894,0.5541 0.2388,0.26436 0.489,0.161 0.489,-0.202 z m 3.8168,-28.63301 V 49.107473 l 1.1132,-0.003 c 2.0788,-0.006 1.986,0.13575 2.1327,-3.25839 0.099,-2.29124 0.2608,-3.45159 0.6917,-4.96181 0.5109,-1.79046 0.6916,-2.11398 1.9702,-3.52834 0.7742,-0.85642 1.7234,-1.7375 2.1092,-1.95795 0.9466,-0.54088 3.7346,-1.31358 4.7395,-1.31358 0.8975,0 1.057,-0.30913 0.3697,-0.71637 -1.0216,-0.60525 -4.3863,0.3006 -6.3773,1.7169 -3.0667,2.18159 -4.3825,5.2443 -4.4763,10.41956 l -0.046,2.54685 -1.4957,0.068 -1.4956,0.068 0.044,62.489777 c 0,0 0.053,28.4984 0.064,28.59118 0.011,0.0928 0.1634,0.10788 0.3383,0.0336 0.2816,-0.11964 0.3181,-28.13106 0.3181,-28.13106 z m -3.3927,-14.307786 c 0,-50.731231 -0.071,-76.138031 -0.2121,-76.041431 -0.2395,0.16387 -0.31,117.739227 -0.071,118.004147 0.078,0.0861 0.1732,0.1565 0.212,0.1565 0.039,0 0.071,-42.119216 0.071,-42.119216 z m 0.8481,-0.58684 c 0,-50.496491 -0.071,-75.785931 -0.212,-75.689331 -0.2308,0.15792 -0.3086,115.977217 -0.078,116.928267 0.07,0.29049 0.1644,0.52816 0.2091,0.52816 0.045,0 0.081,-41.767096 0.081,-41.767096 z m 2.7366,-48.577031 h 1.4635 l 0.1433,-2.52343 c 0.2587,-4.55656 1.1849,-7.12327 3.3968,-9.41386 0.8931,-0.9249 1.7805,-1.57468 2.7765,-2.03302 1.6609,-0.76437 1.6791,-0.77547 1.534,-0.93619 -0.1945,-0.21531 -2.4872,0.78324 -3.4063,1.48358 -2.9926,2.28032 -4.3487,5.33589 -4.7195,10.63409 l -0.1415,2.02331 -1.3735,0.12205 c -0.7554,0.0671 -1.3924,0.16014 -1.4156,0.20671 -0.023,0.0466 0.01,28.130041 0.065,62.407737 l 0.1071,28.25578 0.053,-28.07973 0.053,-62.147027 z m 1.9284,9.15481 c 0,-0.12911 -0.095,-0.23474 -0.212,-0.23474 -0.1167,0 -0.2121,0.10563 -0.2121,0.23474 0,0.1291 0.095,0.23474 0.2121,0.23474 0.1166,0 0.212,-0.10564 0.212,-0.23474 z m 0.212,-1.53966 c 0,-0.38733 -0.3351,-0.45277 -0.5301,-0.10351 -0.1729,0.30974 0.081,0.7493 0.3327,0.57682 0.1086,-0.0743 0.1974,-0.28727 0.1974,-0.47331 z m -0.6361,-0.77899 c 0,-0.11329 -0.1431,-0.33749 -0.3181,-0.49822 -0.3452,-0.3172 -0.3884,-0.24132 -0.1893,0.33291 0.1362,0.39307 0.5074,0.51399 0.5074,0.16531 z m 1.269,-0.58564 c 0,-0.11264 -0.1388,-0.0743 -0.3125,0.0853 -0.1736,0.15954 -0.2571,0.39502 -0.1855,0.52328 0.1314,0.23539 0.4916,-0.20477 0.498,-0.60856 z m -0.7177,-0.75763 c -0.1026,-0.29611 -0.2047,-0.33672 -0.3744,-0.14893 -0.1282,0.14202 -0.1697,0.44142 -0.092,0.66535 0.1027,0.2961 0.2048,0.33672 0.3744,0.14893 0.1283,-0.14202 0.1698,-0.44143 0.092,-0.66535 z m -0.5173,-0.72194 0.3381,-0.61695 0.3685,0.62249 c 0.2026,0.34238 0.499,0.6225 0.6587,0.6225 0.2335,0 0.221,-0.16061 -0.064,-0.82158 -0.4647,-1.07878 -1.1012,-1.08884 -1.8314,-0.029 -0.5352,0.77672 -0.5592,1.15842 -0.06,0.94621 0.1382,-0.0587 0.4034,-0.38436 0.5894,-0.72369 z m -0.5508,-1.9711 c 0.01,-0.72971 -0.061,-0.92388 -0.3181,-0.8698 -0.2427,0.051 -0.3485,0.41447 -0.3955,1.35849 -0.062,1.24048 -0.05,1.27313 0.3181,0.8698 0.235,-0.25772 0.3873,-0.78076 0.3955,-1.35849 z m 1.1529,0.0309 c 0,-0.31698 -0.3865,-0.53673 -0.6395,-0.36359 -0.1186,0.0811 -0.1607,0.24577 -0.093,0.36596 0.1591,0.28511 0.7331,0.28326 0.7331,-0.002 z m -2.1065,-4.2474 c 0.5096,-0.30188 0.561,-1.52061 0.073,-1.72793 -0.1854,-0.0788 -0.424,-0.0839 -0.5301,-0.0113 -0.3172,0.21701 -0.218,1.04324 0.1252,1.04324 0.1749,0 0.3181,0.10563 0.3181,0.23474 0,0.38811 -0.8123,0.26422 -1.0248,-0.15632 -0.2917,-0.57689 0.048,-1.60747 0.9819,-2.97921 0.452,-0.66392 0.9445,-1.46208 1.0945,-1.77367 0.3887,-0.80761 0.18,-3.42776 -0.3663,-4.59771 -0.4875,-1.04413 -2.1697,-3.5986 -2.1697,-3.29473 0,0.10657 0.5301,1.28767 1.1779,2.62466 1.0269,2.11936 1.1696,2.57281 1.1132,3.53817 -0.054,0.92584 -0.1598,1.16621 -0.6459,1.46697 -0.6525,0.40376 -1.2712,0.15464 -1.3987,-0.5632 -0.1025,-0.577 0.5885,-1.3434 1.0614,-1.17725 0.5647,0.19841 0.5012,-0.49159 -0.1857,-2.01745 l -0.5742,-1.27554 -0.1613,0.85956 c -0.089,0.47276 -0.3548,1.21088 -0.5913,1.64025 -0.5203,0.94487 -0.5529,2.01016 -0.084,2.75117 0.303,0.47876 0.4661,0.53117 1.2723,0.40883 0.5087,-0.0772 0.9248,-0.0917 0.9248,-0.0322 0,0.0594 -0.3889,0.32774 -0.8642,0.59618 -0.5876,0.33188 -0.9654,0.75611 -1.1803,1.32563 -0.4057,1.07477 -0.2056,2.52873 0.4142,3.00927 0.5364,0.4159 0.6789,0.42849 1.2202,0.10782 z m 10.6944,-7.03372 c -0.1645,-0.57378 0.5499,-0.93914 1.8364,-0.93914 1.0795,0 1.9876,-0.58658 2.401,-1.55096 0.6229,-1.45311 0.2302,-3.08815 -1.1064,-4.60661 -0.8672,-0.98523 -0.8381,-1.29903 0.074,-0.79757 0.9472,0.52077 2.8445,1.15802 2.985,1.00252 0.069,-0.0767 -0.01,-0.18319 -0.1694,-0.23655 -1.6552,-0.54366 -2.4104,-1.03671 -3.873,-2.52868 -1.5769,-1.60844 -1.6483,-1.65244 -2.0428,-1.25727 -0.399,0.39979 -0.3782,0.44642 0.8781,1.96466 0.7078,0.85533 1.5147,2.08332 1.7933,2.72885 0.2785,0.64553 0.5073,1.0347 0.5085,0.86483 0.001,-0.16987 -0.097,-0.51317 -0.2175,-0.7629 -0.1458,-0.30156 -0.1476,-0.45404 0,-0.45404 0.1178,0 0.3597,0.31165 0.5376,0.69256 0.8959,1.91785 -0.1504,4.03731 -1.6736,3.39025 -0.5305,-0.22537 -0.4016,-1.01494 0.2075,-1.27132 0.6353,-0.26738 0.5362,-0.59525 -0.2288,-0.75713 -1.5963,-0.33781 -2.1939,2.42913 -0.6713,3.10825 0.38,0.16947 0.3039,0.20929 -0.4228,0.22149 -1.1351,0.0191 -1.9587,0.8954 -1.4111,1.50156 0.3257,0.36057 0.7331,0.14848 0.6008,-0.3128 z m 5.9354,-2.69968 -0.1268,-0.93895 0.5944,0.73922 c 0.6476,0.80543 1.3205,1.25606 1.8757,1.25606 0.281,0 0.3248,-0.13458 0.2103,-0.64553 -0.1652,-0.73665 -0.9048,-1.70186 -1.304,-1.70186 -0.1477,0 -0.3339,-0.11693 -0.4137,-0.25984 -0.1008,-0.18065 0.057,-0.21074 0.5176,-0.0987 0.8409,0.20446 1.9349,-0.0537 1.9349,-0.45656 0,-0.48421 -0.6002,-0.62111 -1.9708,-0.44946 -0.9548,0.11959 -1.2895,0.26014 -1.3633,0.57247 -0.054,0.22768 -0.2798,0.46666 -0.5023,0.53107 -0.3241,0.0938 -0.4044,0.33198 -0.4044,1.19857 0,0.59482 0.1192,1.29311 0.265,1.55175 0.2511,0.44546 0.2796,0.44839 0.5396,0.0555 0.1763,-0.26634 0.2292,-0.75077 0.1478,-1.35372 z m -5.9241,0.6073 c -0.078,-0.14035 -0.3424,-0.25519 -0.5869,-0.25519 -0.4327,0 -0.4342,0.0125 -0.056,0.47503 0.3909,0.47816 0.9299,0.29391 0.6431,-0.21984 z m -8.3871,-0.7079 c 0,-0.46009 -0.519,-1.19046 -0.846,-1.19046 -0.099,0 -0.3401,-0.0682 -0.5364,-0.15158 -0.3303,-0.14031 -0.3294,-0.0923 0.012,0.64553 0.5499,1.18768 1.3701,1.60464 1.3701,0.69651 z m 2.5259,-2.28203 c 0.535,-0.34216 1.6912,-1.17805 2.5693,-1.85755 1.8958,-1.46699 2.894,-1.77367 3.4719,-1.06667 0.2146,0.26247 0.3339,0.63961 0.2651,0.83808 -0.175,0.5048 -0.4921,0.4496 -0.6239,-0.10863 -0.1326,-0.56101 -0.5369,-0.61699 -0.7164,-0.0992 -0.1883,0.54319 0.4226,1.12004 0.9791,0.92451 0.6719,-0.23605 0.9978,-1.15575 0.6584,-1.85775 -0.4886,-1.0108 -2.0271,-1.43367 -2.5719,-0.70694 -0.2548,0.33979 -0.3041,0.33667 -0.5495,-0.0348 -0.2188,-0.33121 -0.3292,-0.35333 -0.5861,-0.11737 -0.174,0.15992 -0.3816,0.5189 -0.4614,0.79773 -0.1569,0.549 -2.1245,2.73698 -2.4613,2.73698 -0.1132,0 -0.4417,0.20537 -0.7299,0.45637 -0.5531,0.48156 -1.3431,0.37223 -1.5185,-0.21012 -0.065,-0.21743 0.087,-0.25288 0.577,-0.13382 0.6067,0.1475 0.6864,0.0974 0.8941,-0.56209 0.1254,-0.39822 0.3141,-0.72403 0.4193,-0.72403 0.1052,0 0.1913,-0.10764 0.1913,-0.23921 0,-0.14344 -0.2335,-0.17484 -0.5832,-0.0784 -0.5322,0.14674 -0.5569,0.12559 -0.2832,-0.24214 0.4245,-0.57017 1.3775,-0.40947 1.4619,0.2465 0.043,0.33275 -0.067,0.5463 -0.3181,0.6183 -0.3433,0.0985 -0.3452,0.11285 -0.018,0.13723 0.207,0.0154 0.5084,-0.27827 0.6946,-0.67699 0.2073,-0.44384 0.2433,-0.70421 0.097,-0.70421 -0.14,0 -0.175,-0.19803 -0.088,-0.50042 0.1326,-0.46262 0.088,-0.48881 -0.5963,-0.34676 l -0.7398,0.15364 0.1044,-1.12035 c 0.1496,-1.60437 0.5537,-2.22196 1.3949,-2.13178 0.5556,0.0596 0.6878,0.1847 0.7418,0.70222 0.047,0.45411 -0.064,0.70667 -0.3998,0.90555 -0.4344,0.2574 -0.4562,0.23497 -0.3267,-0.33633 0.1887,-0.8323 -0.4373,-0.84095 -0.7227,-0.01 -0.3415,0.99439 -0.2529,1.24106 0.474,1.3196 0.5253,0.0567 0.7092,0.20762 0.8049,0.6604 0.1079,0.50986 0.1436,0.53073 0.2727,0.15905 0.082,-0.23529 0.046,-0.6402 -0.08,-0.8998 -0.1761,-0.36415 -0.1517,-0.56562 0.1067,-0.88175 0.3967,-0.48525 0.4389,-1.45493 0.081,-1.85163 -0.1399,-0.15493 -0.5693,-0.28169 -0.9542,-0.28169 -0.3933,0 -0.6997,-0.12038 -0.6997,-0.27494 0,-0.5239 -0.7047,-1.13348 -1.3104,-1.13348 -0.4554,0 -0.6597,0.14897 -0.8119,0.59226 -0.1668,0.48552 -0.2999,0.56547 -0.7385,0.4436 -0.7008,-0.19472 -1.5931,0.44582 -1.5892,1.14088 0.01,1.19919 0.2128,1.5448 0.8116,1.36032 0.6157,-0.18967 1.942,0.10877 1.942,0.43697 0,0.11264 -0.3295,0.19446 -0.7323,0.18182 -0.4169,-0.0131 -0.9036,0.14861 -1.1299,0.37534 -0.5748,0.57578 -0.8943,0.49044 -0.8943,-0.23883 0,-0.57693 -0.031,-0.60258 -0.3304,-0.27137 -0.416,0.46043 -0.2112,1.52662 0.3579,1.86379 0.3176,0.1882 0.4314,0.14966 0.538,-0.18225 0.3778,-1.1771 1.2312,-1.56736 1.8732,-0.85664 0.6779,0.75049 -0.1836,2.43101 -1.2463,2.43101 -0.7603,0 -1.8785,-0.80969 -2.2893,-1.65765 -0.8089,-1.6697 -0.3688,-3.7734 1.096,-5.23831 1.1018,-1.102 1.6304,-1.31989 3.2021,-1.31989 1.4023,0 2.3572,0.36049 3.4911,1.31793 l 0.7553,0.63776 0.5413,-0.5992 0.5413,-0.59919 -0.9254,-1.45266 c -0.8514,-1.33635 -0.9254,-1.56872 -0.9247,-2.90209 0.001,-1.91743 0.4869,-2.95875 1.8742,-4.01645 0.924,-0.70456 1.2773,-0.83669 2.2367,-0.83669 1.8139,0 2.9918,1.00384 2.9918,2.54966 0,0.87945 -0.9042,1.76068 -1.5706,1.53074 -0.5818,-0.20075 -0.719,-0.46672 -0.5991,-1.16134 0.1328,-0.7691 -0.115,-0.7253 -0.4179,0.0739 -0.2396,0.63209 -0.2464,0.63426 -0.3291,0.1041 -0.085,-0.54529 -0.9913,-1.19631 -1.2566,-0.90269 -0.078,0.0869 0.1128,0.45312 0.425,0.81388 0.605,0.69902 0.7046,0.98235 0.3455,0.98235 -0.439,0 -1.2621,-1.24704 -1.2621,-1.91219 0,-0.54257 0.093,-0.66994 0.4877,-0.66994 0.2682,0 0.5999,0.12427 0.7371,0.27614 0.1912,0.2117 0.3477,0.17766 0.6706,-0.14584 0.4659,-0.46672 1.0732,-0.34537 1.0732,0.21444 0,0.19772 0.095,0.35948 0.212,0.35948 0.2925,0 0.2664,-0.55019 -0.042,-0.89201 -0.3292,-0.36441 -1.0731,-0.36131 -1.4048,0.006 -0.2049,0.2269 -0.3518,0.22391 -0.6962,-0.0142 -0.3645,-0.25202 -0.5227,-0.23913 -0.9603,0.0782 -0.6673,0.48403 -0.8456,1.00267 -0.5345,1.55422 0.3304,0.58563 0.3168,0.63192 -0.2103,0.71867 -0.2507,0.0413 -0.6469,0.35945 -0.8805,0.7071 -0.3983,0.59282 -0.4033,0.66834 -0.08,1.2153 0.1898,0.32075 0.5622,0.61729 0.8275,0.65896 0.3588,0.0564 0.5007,0.25606 0.5541,0.77999 0.039,0.38732 0.1704,0.83625 0.291,0.99764 0.3094,0.4141 1.2294,0.36435 1.684,-0.0911 0.3052,-0.30578 0.4471,-0.32634 0.693,-0.10041 0.48,0.44101 1.4696,0.21227 1.7104,-0.39536 0.1151,-0.29049 0.3116,-0.52816 0.4366,-0.52816 0.4657,0 1.0352,-0.67299 1.058,-1.25039 0.013,-0.32834 0.1476,-0.7623 0.2991,-0.96436 0.2224,-0.29664 0.2237,-0.43626 0.01,-0.72516 -0.3783,-0.50451 -0.06,-0.75244 0.3641,-0.28334 0.3089,0.34192 0.3169,0.50513 0.068,1.39445 -0.1549,0.55397 -0.6247,1.38578 -1.044,1.84848 -0.4193,0.46269 -0.9284,1.07008 -1.1314,1.34975 -0.2029,0.27966 -0.567,0.50848 -0.8091,0.50848 -0.5415,0 -1.2604,0.40636 -1.2604,0.71247 0,0.12456 0.1387,0.22648 0.3081,0.22648 0.2425,0 0.2833,0.23741 0.1919,1.11501 -0.1059,1.01524 -0.059,1.17508 0.523,1.78639 0.55,0.57759 0.7232,0.64044 1.2395,0.44991 0.7409,-0.27339 0.8814,-1.35603 0.176,-1.35603 -0.2356,0 -0.424,0.15649 -0.424,0.35211 0,0.71708 -0.6356,0.35847 -0.7016,-0.39585 -0.08,-0.9143 0.3736,-1.92869 1.4358,-3.21076 1.2824,-1.54785 2.1285,-3.18943 2.1272,-4.12704 0,-2.17782 -0.9158,-3.72592 -2.5079,-4.254 -0.486,-0.16119 -0.8837,-0.38198 -0.8837,-0.49065 0,-0.51336 1.2381,-0.0673 3.6868,1.32822 2.1347,1.21655 2.8718,1.5258 3.6369,1.5258 1.2488,0 2.2326,-0.47156 3.4416,-1.64966 0.8517,-0.82994 1.0926,-0.94582 1.8398,-0.88504 0.7204,0.0586 0.8713,0.15992 0.9307,0.62518 0.097,0.76148 -0.36,1.26168 -0.5229,0.57196 -0.1483,-0.62775 -0.6874,-0.891 -0.8521,-0.41604 -0.2789,0.80484 0.9894,1.42122 1.5797,0.76769 0.3973,-0.43983 0.3058,-1.70674 -0.1567,-2.17016 -0.2391,-0.23954 -0.746,-0.41196 -1.2112,-0.41196 -0.6632,0 -0.9384,0.16441 -1.6108,0.96243 -0.9114,1.08159 -1.2872,1.22427 -1.1047,0.41942 0.08,-0.35214 -0.024,-0.74405 -0.2954,-1.11501 -0.5376,-0.73473 -1.8758,-0.74385 -3.1509,-0.0215 -0.491,0.27818 -1.0874,0.50578 -1.3253,0.50578 -0.2379,0 -0.4325,0.11079 -0.4325,0.24621 0,0.33229 1.6664,1.15064 2.3561,1.15706 0.4765,0.004 0.5396,-0.0763 0.4528,-0.5793 -0.1778,-1.02968 1.4009,-1.29607 1.8745,-0.31631 0.3515,0.72704 0.029,1.33559 -0.8642,1.63192 -1.099,0.36451 -2.4429,-0.0132 -4.2507,-1.19487 -3.8841,-2.53866 -7.7018,-2.53088 -9.2932,0.0189 -0.3077,0.49304 -0.6185,0.90045 -0.6906,0.90535 -0.072,0.005 -0.1848,-0.43406 -0.2504,-0.97546 -0.2755,-2.27382 -2.9444,-2.7223 -3.6248,-0.6091 -0.4284,1.33067 0.5109,2.55523 1.6488,2.14952 0.4241,-0.15117 0.4166,-0.17227 -0.134,-0.37764 -0.9335,-0.34826 -0.6888,-1.82159 0.3026,-1.82159 0.7557,0 1.1061,1.09328 1.2437,3.87975 0.1287,2.60849 0.1388,2.64908 1.0099,4.06178 0.9625,1.56097 0.8709,1.99845 -0.2568,1.22691 -0.9916,-0.67843 -3.7548,-1.42138 -5.3019,-1.42553 -1.6315,-0.004 -2.3287,-0.37312 -2.4228,-1.28146 -0.083,-0.79999 0.3985,-1.31196 1.0549,-1.12192 0.3395,0.0983 0.4146,0.27168 0.345,0.79675 -0.096,0.72297 0.028,0.8353 0.4313,0.38945 0.7745,-0.85747 -0.3523,-2.45937 -1.5446,-2.19572 -1.5985,0.35346 -2.2058,2.52531 -1.0607,3.79304 0.4693,0.51943 0.6533,0.57272 1.5374,0.4451 0.9344,-0.1349 0.9756,-0.11954 0.5927,0.22084 -0.2264,0.2012 -0.5178,0.36582 -0.6476,0.36582 -0.4605,0 -1.6109,1.58119 -2.0222,2.7795 -0.4323,1.25972 -0.5218,2.86056 -0.2053,3.67581 0.1002,0.25821 0.1889,0.33743 0.1971,0.17605 0.021,-0.41958 0.439,-0.36439 0.439,0.058 0,0.50564 1.3674,2.10821 2.1748,2.54884 1.0983,0.59941 2.809,0.49734 3.9559,-0.23603 z m -1.3283,-5.5028 c -0.2899,-0.4582 -0.316,-0.46214 -0.388,-0.0587 -0.068,0.38154 -0.1374,0.35644 -0.5877,-0.21305 -0.6118,-0.77368 -1.2253,-0.91428 -0.8149,-0.18673 0.1424,0.25234 0.1827,0.54283 0.09,0.64553 -0.2406,0.2655 -0.9836,-0.82324 -0.8415,-1.23317 0.1556,-0.44903 1.1288,-0.43503 1.7218,0.0248 0.4608,0.35727 0.4713,0.34665 0.4713,-0.47684 0,-0.92311 0.4448,-1.30946 1.036,-0.8999 0.431,0.29856 0.61,1.57959 0.1996,1.42814 -0.1548,-0.0571 -0.2814,-0.21827 -0.2814,-0.35813 0,-0.44711 -0.3036,-0.6084 -0.4344,-0.23084 -0.069,0.20048 0.024,0.6857 0.207,1.07826 0.1834,0.39256 0.3334,0.77181 0.3334,0.84277 0,0.30598 -0.4251,0.0894 -0.7108,-0.36214 z m 6.5379,-4.99947 c -0.3433,-0.2779 -0.3665,-0.41552 -0.1563,-0.92629 0.2555,-0.62078 1.4111,-1.05446 2.0672,-0.77575 0.6042,0.25668 0.3185,0.59311 -0.565,0.66519 -1.014,0.0827 -1.4073,0.6547 -0.4583,0.66649 0.5741,0.007 0.5825,0.0228 0.1892,0.35211 -0.5068,0.42432 -0.5738,0.42545 -1.0768,0.0183 z m 2.3719,0.1699 c -0.3149,-0.34867 -0.1092,-1.30884 0.4016,-1.87435 0.7114,-0.78757 0.9039,-0.54309 0.3052,0.38767 -0.5019,0.78032 -0.4381,1.20414 0.1061,0.70422 0.44,-0.40428 0.6207,-0.15657 0.3277,0.44937 -0.2287,0.47306 -0.8502,0.65456 -1.1406,0.33309 z m 1.4432,-1.497 c -0.1576,-0.28228 0.4432,-1.39811 0.7528,-1.39811 0.2705,0 0.2671,0.40075 0,0.58685 -0.3341,0.2286 -0.2471,0.58703 0.1061,0.43699 0.2014,-0.0856 0.318,0.003 0.318,0.24211 0,0.42772 -0.9473,0.53454 -1.172,0.13216 z m -4.9348,-0.74084 c -0.3601,-0.39859 -0.3157,-1.11549 0.08,-1.28336 0.441,-0.18737 1.8773,0.29894 2.2156,0.75021 0.4436,0.59169 0.064,0.66541 -0.7081,0.1374 -0.856,-0.58564 -1.2054,-0.62743 -1.2054,-0.14415 0,0.19366 0.1375,0.35211 0.3056,0.35211 0.168,0 0.3645,0.10563 0.4366,0.23474 0.1868,0.33469 -0.817,0.29276 -1.1239,-0.047 z m 7.1671,12.49635 c 0,-0.12457 -0.1909,-0.33955 -0.4241,-0.47774 -0.4584,-0.27158 -0.4919,-0.23388 -0.2954,0.33291 0.1389,0.40065 0.7195,0.51752 0.7195,0.14483 z m 2.6272,-0.9689 c 0.705,-0.61389 1.1895,-1.86603 1.1895,-3.07402 0,-1.03453 0.3376,-1.92069 0.6503,-1.70679 0.1127,0.0771 0.1499,0.2385 0.083,0.35868 -0.067,0.12019 0.017,0.21852 0.1859,0.21852 0.4157,0 0.6477,-0.73621 0.3074,-0.97528 -0.6648,-0.46699 -1.37,0.0566 -1.6551,1.22903 l -0.2311,0.94997 -0.4277,-0.60186 c -0.9646,-1.35754 -2.7479,-0.0393 -2.1765,1.60896 0.1889,0.54514 0.4429,0.45307 0.5945,-0.21554 0.1758,-0.77557 0.9022,-0.7813 1.2198,-0.01 0.3014,0.73241 -0.2043,1.69053 -1.0107,1.91458 -0.5762,0.16008 -2.0905,-0.24135 -2.6287,-0.69683 -0.2794,-0.23651 -0.2813,-0.21739 -0.015,0.15752 0.8873,1.24972 2.9398,1.69156 3.9147,0.84267 z m -6.1203,-0.67228 c -0.069,-0.12347 -0.2654,-0.16498 -0.4366,-0.0923 -0.4383,0.1862 -0.3866,0.31674 0.1254,0.31674 0.2401,0 0.3802,-0.10102 0.3112,-0.22449 z m 4.6815,-6.73075 c 1.2082,-2.82731 3.5944,-4.45545 7.0276,-4.79509 1.1374,-0.11252 2.8553,-0.20836 3.8175,-0.21296 l 1.7493,-0.008 v -1.58448 c 0,-0.87147 0.079,-1.71641 0.1714,-1.87764 0.1339,-0.23349 25.627858,-0.35211 25.627858,-0.35211 0,0 21.40191,-0.12826 21.46041,-0.32249 0.044,-0.14494 -0.1393,-0.32836 -0.4064,-0.40758 -0.2672,-0.0792 -22.04701,-0.14726 -22.04701,-0.14726 l -25.639858,-0.003 -0.062,1.81923 -0.062,1.81922 -1.9084,-0.0794 c -2.3372,-0.0972 -5.0718,0.43613 -6.6793,1.30276 -2.8471,1.53483 -4.7403,4.66367 -5.1778,8.55721 -0.1283,1.14253 -0.096,1.36339 0.2329,1.56683 0.3436,0.21291 0.4307,0.0236 0.862,-1.87457 0.2638,-1.16126 0.7275,-2.69131 1.0304,-3.40011 z m -2.6728,4.38697 c 0,-0.12149 -0.095,-0.28617 -0.212,-0.36596 -0.1166,-0.0798 -0.212,0.0196 -0.212,0.22088 0,0.20128 0.095,0.36596 0.212,0.36596 0.1166,0 0.212,-0.0994 0.212,-0.22088 z m -4.9357,-2.64788 c 1.2615,-1.38411 1.6213,-2.06075 1.0957,-2.06075 -0.4129,0 -3.0192,2.96422 -2.8588,3.25146 0.2401,0.43009 0.3592,0.34967 1.7631,-1.19071 z m 9.3854,1.04954 c 0,-0.0968 -0.092,-0.33144 -0.2005,-0.52136 -0.2443,-0.42765 -0.5309,-0.1602 -0.3592,0.33518 0.1268,0.36586 0.5657,0.51185 0.5597,0.18618 z m -8.7966,-0.52816 c 0.2111,-0.25821 0.3361,-0.46948 0.2778,-0.46948 -0.058,0 -0.2787,0.21127 -0.4898,0.46948 -0.2111,0.25821 -0.3361,0.46947 -0.2778,0.46947 0.058,0 0.2788,-0.21126 0.4898,-0.46947 z m 4.771,-0.95349 c 0,-0.71018 1.2794,-3.08642 2.3181,-4.30531 0.8767,-1.02896 1.6191,-1.61481 2.8838,-2.27603 2.2317,-1.16669 3.1235,-1.37261 5.9745,-1.3795 l 2.3766,-0.006 0.062,-1.77693 0.062,-1.77694 25.436758,0.024 c 0,0 21.35801,-0.0519 21.35801,-0.21861 0,-0.16676 -21.57011,-0.1837 -21.57011,-0.1837 l -25.648758,0.059 -0.062,1.70185 -0.062,1.70186 h -2.1684 c -3.776,0 -6.5525,1.15358 -8.7544,3.63727 -1.6145,1.82124 -3.1598,5.04805 -2.4174,5.04805 0.1167,0 0.2121,-0.11217 0.2121,-0.24927 z m -8.0576,-2.90584 c 0,-0.0569 -0.095,-0.1688 -0.2121,-0.2486 -0.1166,-0.0798 -0.212,-0.0332 -0.212,0.10352 0,0.13672 0.095,0.24859 0.212,0.24859 0.1166,0 0.2121,-0.0466 0.2121,-0.10351 z m -1.7756,-0.95995 c -0.081,-0.23445 0.058,-0.4514 0.4014,-0.62453 0.5681,-0.28651 0.577,-0.31326 0.3334,-1.00295 -0.1477,-0.41818 -0.1761,-0.40249 -0.3057,0.16928 -0.175,0.77194 -0.7983,1.17435 -1.5118,0.97609 -0.4309,-0.11971 -0.5335,-0.29143 -0.5297,-0.88595 v -0.73745 l 0.3993,0.57528 c 0.3409,0.49103 0.4489,0.52979 0.7375,0.26468 0.4509,-0.41428 0.4261,-0.64235 -0.086,-0.79061 -0.2333,-0.0675 -0.4241,-0.23829 -0.4241,-0.37948 0,-0.35131 0.9104,-0.3247 1.2558,0.0367 0.2319,0.24262 0.2357,0.19729 0.022,-0.26177 -0.2175,-0.46717 -0.3729,-0.53463 -0.9802,-0.42555 -0.6807,0.1223 -0.7216,0.0914 -0.7216,-0.54596 0,-0.95571 -0.3829,-1.10414 -0.4633,-0.17961 -0.057,0.65101 -0.1599,0.77912 -0.6808,0.84493 -0.3847,0.0486 -0.8598,-0.11649 -1.2722,-0.44207 l -0.6583,-0.51963 0.4607,0.53474 c 0.2533,0.29412 0.8259,0.60304 1.2722,0.68649 0.8112,0.15166 0.9248,0.37539 0.6138,1.20869 -0.2034,0.54518 0.5165,1.39595 1.3692,1.61795 0.4053,0.10555 0.7711,0.20272 0.8127,0.21594 0.042,0.0132 0.02,-0.13764 -0.049,-0.33522 z m -9.4628,-2.78106 c 0,-0.0488 -0.1532,-0.49463 -0.3405,-0.99078 -0.2265,-0.60031 -0.2988,-1.2381 -0.2161,-1.90657 0.1211,-0.97776 -0.1164,-1.37888 -0.3749,-0.63319 -0.3497,1.00874 0.1867,3.61924 0.7436,3.61924 0.1034,0 0.1879,-0.0399 0.1879,-0.0887 z m 37.3351,-0.52986 -0.4395,-0.61857 0.5302,-0.54392 c 0.762,-0.78181 0.653,-0.89398 -0.2524,-0.25966 -0.9818,0.68786 -1.0559,0.93698 -0.4611,1.55036 0.7129,0.73534 1.1696,0.64133 0.6228,-0.12821 z m 1.6749,0.393 c 0.1716,-0.12011 0.2568,-0.27943 0.1894,-0.35404 -0.1671,-0.18492 -0.8194,0.10964 -0.8194,0.36998 0,0.26755 0.2335,0.26164 0.63,-0.0159 z m -35.0342,-0.55119 c 0.5266,-0.37729 0.2601,-0.80729 -0.594,-0.95849 -0.6215,-0.11002 -0.9459,-0.056 -1.173,0.19552 -0.1727,0.19118 -0.6449,0.41631 -1.0494,0.50031 -0.4044,0.084 -0.7352,0.22018 -0.7352,0.30264 2e-4,0.21976 3.24,0.18329 3.5516,-0.04 z m 31.6588,-0.27957 c -0.017,-0.34842 -0.491,-0.28441 -0.601,0.0811 -0.059,0.19745 0.038,0.28544 0.2585,0.23474 0.1946,-0.0446 0.3487,-0.18673 0.3425,-0.31584 z m 2.9089,-0.0734 c 0.047,-0.15571 -0.1111,-0.27876 -0.3579,-0.27876 -0.4405,0 -0.5725,0.2465 -0.2959,0.55262 0.1964,0.21748 0.5505,0.0692 0.6538,-0.27386 z m 1.5329,0.19072 c 0,-0.12911 -0.1488,-0.23474 -0.3306,-0.23474 -0.1818,0 -0.2716,0.10563 -0.1996,0.23474 0.072,0.12911 0.2209,0.23474 0.3306,0.23474 0.1098,0 0.1996,-0.10563 0.1996,-0.23474 z m 1.0602,0 c 0,-0.12911 -0.095,-0.23474 -0.2121,-0.23474 -0.1166,0 -0.212,0.10563 -0.212,0.23474 0,0.12911 0.095,0.23474 0.212,0.23474 0.1167,0 0.2121,-0.10563 0.2121,-0.23474 z m -34.3912,-0.63309 c 0.044,-0.33985 -0.1152,-0.6424 -0.4753,-0.90355 -0.5819,-0.4221 -0.5527,-0.86181 0.045,-0.67858 0.2004,0.0614 -0.1128,-0.1531 -0.6959,-0.4767 -1.6289,-0.90399 -1.8475,-0.77708 -1.3551,0.78667 0.167,0.53046 0.336,0.71178 0.5831,0.62568 0.2316,-0.0807 0.4717,0.11876 0.7181,0.59655 0.4246,0.82304 1.0767,0.85063 1.1801,0.0499 z m 15.9433,0.19481 c 0,-0.25128 -0.3619,-0.70341 -0.8481,-1.05966 -0.9523,-0.69763 -0.9917,-0.66662 -0.5006,0.39459 0.5256,1.13574 1.3487,1.54163 1.3487,0.66507 z m 16.4335,-0.50067 c -0.072,-0.12911 -0.2209,-0.23474 -0.3306,-0.23474 -0.1098,0 -0.1996,0.10563 -0.1996,0.23474 0,0.1291 0.1488,0.23474 0.3306,0.23474 0.1818,0 0.2716,-0.10564 0.1996,-0.23474 z m -2.5446,-0.57957 0.6362,-0.57724 -1.2193,-0.008 c -1.1612,-0.008 -1.2192,0.0195 -1.2192,0.5784 0,0.48399 0.1022,0.58665 0.5831,0.58568 0.3207,-7e-4 0.8694,-0.26092 1.2192,-0.5784 z m -33.8907,-0.35231 c -1.3503,-0.47763 -1.9323,-0.95048 -2.3987,-1.94896 -0.4083,-0.87397 -0.7746,-3.15011 -0.6181,-3.8403 0.1082,-0.47728 0.2526,-0.5543 1.0231,-0.54546 2.1847,0.0251 4.6079,2.02601 4.6079,3.80487 0,0.33944 0.095,0.68244 0.2121,0.76223 0.352,0.24086 0.2323,-1.1016 -0.1901,-2.13109 -0.4912,-1.19719 -1.2611,-1.87802 -2.6342,-2.32943 -1.2416,-0.40819 -3.0251,-0.46417 -3.2277,-0.10131 -0.077,0.13766 -0.1397,0.86439 -0.1397,1.61493 0,2.96194 1.6692,5.06788 4.0712,5.13652 0.2916,0.008 -0.026,-0.18157 -0.7058,-0.422 z m 79.745568,-0.65637 c -0.1922,-0.21276 -0.7835,0.17621 -0.645,0.4243 0.095,0.17017 0.2337,0.16021 0.4427,-0.0318 0.1674,-0.15377 0.2584,-0.3304 0.2023,-0.3925 z m 2.3574,-0.34914 c 0.4449,-0.008 1.4292,0.0653 2.1873,0.16275 2.294397,0.29496 3.415737,-0.556183 2.225697,-1.68932 l -0.6019,-0.57312 -0.3765,0.55142 -0.376597,0.55143 -0.7547,-0.44852 c -0.4151,-0.24668 -0.8229,-0.37298 -0.9063,-0.28066 -0.2123,0.23507 0.3151,0.57194 1.3734,0.87713 1.102997,0.31807 1.223797,0.79287 0.1447,0.56878 -0.6724,-0.13966 -1.0295,-0.32769 -2.4772,-1.30447 -0.2831,-0.19103 -0.3711,-0.17389 -0.3711,0.0723 0,0.17748 0.2624,0.46322 0.5832,0.63497 0.4668,0.25002 0.5093,0.33113 0.2132,0.40674 -0.2034,0.052 -0.6566,-0.13163 -1.0072,-0.40796 -0.5272,-0.41562 -0.6373,-0.43883 -0.6373,-0.13432 0,0.20245 0.095,0.36809 0.212,0.36809 0.1166,0 0.2121,0.091 0.2121,0.20219 0,0.1112 -0.2258,0.15441 -0.5017,0.096 -0.4072,-0.0862 -0.5218,0.0101 -0.6082,0.51039 -0.1004,0.58113 -0.084,0.59456 0.2758,0.23358 0.2103,-0.21065 0.7464,-0.3895 1.1913,-0.39744 z m -81.337068,-0.32552 -0.1252,-0.85447 0.7747,0.16089 c 0.8907,0.18499 0.8927,0.18028 0.4202,-0.98292 -0.3132,-0.77087 -0.3644,-0.81109 -0.4388,-0.34457 -0.1349,0.84495 -0.476,0.60976 -0.5107,-0.35211 -0.026,-0.71442 -0.049,-0.75792 -0.1204,-0.2309 l -0.089,0.64938 -0.6748,-0.41464 c -0.3711,-0.22805 -0.7331,-0.50288 -0.8044,-0.61073 -0.071,-0.10786 -0.2145,-0.16068 -0.3181,-0.11737 -0.1036,0.0433 -0.2188,-0.15894 -0.2561,-0.44943 -0.091,-0.70556 -0.3881,-0.67159 -0.5142,0.0587 -0.06,0.34771 0,0.58685 0.1398,0.58685 0.1326,0 0.4295,0.47434 0.6597,1.0541 0.2302,0.57975 0.5226,1.0551 0.6496,1.05632 0.1271,0.001 0.3451,0.27932 0.4845,0.61799 0.2411,0.5858 0.2273,0.61024 -0.284,0.50203 -0.2957,-0.0626 -0.5375,-0.0305 -0.5375,0.0712 0,0.20675 0.5057,0.3858 1.2059,0.42691 0.4178,0.0245 0.4514,-0.0575 0.3385,-0.82725 z m 89.204765,-1.66896 c -0.049,-1.63911 -0.1255,-2.05397 -0.3793,-2.05397 -0.2538,0 -0.3305,0.41486 -0.3793,2.05397 -0.058,1.94488 -0.038,2.05396 0.3793,2.05396 0.4172,0 0.4373,-0.10908 0.3793,-2.05396 z m -85.689365,1.40843 c 0.3253,-0.67603 0.5411,-3.57977 0.266,-3.57977 -0.1302,0 -0.2367,0.31067 -0.2367,0.69037 0,0.85957 -0.3959,1.16464 -0.7722,0.59501 -0.4529,-0.68568 -0.4851,-0.33481 -0.1136,1.23806 0.3626,1.53494 0.528,1.73896 0.8565,1.05633 z m 75.768068,0.19538 c 0,-0.11847 -0.3578,-0.40896 -0.7952,-0.64553 -1.1118,-0.60139 -1.1254,-1.1155 -0.046,-1.72522 0.4852,-0.27401 0.8369,-0.54837 0.7814,-0.60969 -0.1323,-0.14647 -2.4849,1.08859 -2.4849,1.30451 0,0.41834 1.4195,1.48493 2.4916,1.87219 0.029,0.0105 0.053,-0.0778 0.053,-0.19626 z m 0.7783,-0.86056 c 0.071,-0.20446 0.3269,-0.45284 0.5689,-0.55195 0.4007,-0.16408 0.3717,-0.21612 -0.3237,-0.5814 -0.6932,-0.36415 -0.8344,-0.36848 -1.5297,-0.0469 -0.4213,0.19488 -0.7661,0.41001 -0.7661,0.47806 0,0.13929 1.4996,1.04748 1.7561,1.06354 0.091,0.006 0.2236,-0.15691 0.2945,-0.36138 z m 7.915497,-1.05053 c 0,-0.50881 -0.095,-0.9251 -0.212,-0.9251 -0.1167,0 -0.2121,0.48158 -0.2121,1.07018 0,0.65367 0.082,1.01371 0.2121,0.9251 0.1166,-0.0798 0.212,-0.56138 0.212,-1.07018 z m -0.8482,0.0122 c 0,-0.65157 -0.025,-0.66853 -0.6361,-0.43267 -0.7552,0.29145 -0.7956,0.51875 -0.1775,0.99805 0.5823,0.45153 0.8136,0.2908 0.8136,-0.56538 z m -3.604697,-0.35047 c 0.2985,-0.39813 1.179597,-0.47316 1.378297,-0.11737 0.194,0.34756 0.3963,0.29027 0.9343,-0.26463 0.4703,-0.48505 0.473,-0.51157 0.093,-0.92479 -0.492,-0.53503 -1.0642,-0.60572 -2.967397,-0.36659 -1.3041,0.16386 -1.6523,0.12372 -2.4915,-0.28725 -0.5366,-0.26275 -0.9756,-0.38683 -0.9756,-0.27575 0,0.11109 0.2624,0.30931 0.5832,0.44048 0.5705,0.23334 0.5728,0.24196 0.1084,0.39836 -0.2611,0.0879 -0.428,0.24356 -0.3709,0.34586 0.057,0.10231 0.4545,0.0669 0.8831,-0.0788 0.5715,-0.19416 0.8003,-0.19505 0.858,-0.003 0.058,0.19208 0.2828,0.19208 0.8482,0 0.5797,-0.19695 0.7899,-0.19359 0.8523,0.0136 0.058,0.1938 0.2393,0.20918 0.6126,0.0521 1.157197,-0.48707 1.173697,-0.16008 0.025,0.49629 -0.6706,0.38318 -1.2193,0.74781 -1.2193,0.8103 0,0.25781 0.6033,0.0882 0.8482,-0.2385 z m -6.9975,-0.11737 c 0.2056,-0.14708 -33.88111,-0.23114 -33.88111,-0.23114 0,0 -38.234158,0.0748 -38.146858,0.23115 0.178,0.31894 71.582168,0.31894 72.027968,-10e-6 z m 4.748,-0.37026 c 0.065,-0.18686 -0.01,-0.33395 -0.1697,-0.33395 -0.3403,0 -0.8108,0.57132 -0.6329,0.76832 0.1872,0.20723 0.6709,-0.0546 0.8026,-0.43437 z m 1.2371,0.11735 c 0.5859,-0.41153 0.6116,-0.46256 0.1642,-0.32691 -0.2916,0.0884 -0.6698,0.30784 -0.8406,0.48764 -0.4543,0.47839 -0.1205,0.39907 0.6764,-0.16073 z m -80.001668,-1.31396 c -0.2499,-0.47587 -0.3103,-0.32356 -0.1057,0.26674 0.073,0.20978 0.1769,0.33198 0.2315,0.27154 0.055,-0.0604 0,-0.30266 -0.1258,-0.53828 z m 75.288868,0.39318 c 0,-0.15617 -34.43931,-0.23474 -34.43931,-0.23474 0,0 -38.561858,0.0788 -38.648958,0.23474 -0.087,0.15637 38.517958,0.23474 38.517958,0.23474 0,0 34.57031,-0.0786 34.57031,-0.23474 z m 1.2723,-0.33825 c 0,-0.18604 -0.1038,-0.40923 -0.2306,-0.49597 -0.2994,-0.20485 -0.7081,0.24758 -0.523,0.57903 0.2078,0.3723 0.7536,0.31215 0.7536,-0.0831 z m -81.888068,0 c 0,-0.0569 -0.095,-0.1688 -0.2121,-0.24859 -0.1166,-0.0798 -0.212,-0.0332 -0.212,0.10351 0,0.13673 0.095,0.24859 0.212,0.24859 0.1166,0 0.2121,-0.0466 0.2121,-0.10351 z m 6.943,-0.92857 c -0.5059,-0.42508 -2.0093,-0.62386 -2.9142,-0.38531 -0.6604,0.17409 -0.5903,0.20011 0.6361,0.23617 0.7581,0.0223 1.5691,0.13131 1.8024,0.24227 0.6443,0.30648 0.8933,0.25773 0.4757,-0.0931 z"
       id="path4789"
       inkscape:connector-curvature="0"
       sodipodi:nodetypes="csssscssscccsssscccccsssssccssscscsscccccscccccsscsssssccscsccsscsccccssssscsssscsssscsccccccczccscsssscsscccscccscsscsccccsccccsssscsccssccccccsssscccscscscssccccsccsccsccccssccccscssccccccssssssssscccsssssssccccccscccccscccccsccccssscsscccsccccssssssccsscsscccccccccccccscccccsscssccccccccssscccssccsssccsccsssscccssssccscssccsssssscsccccsscsccssccssccccsscccscccccscccsssscsssscccsscscccssscccccssscccsssscscccsscsscscsssssscccssssssccccssssccssccccscssccccscscccssscsssscssssscssssssccscssscccssccsccsccsccsssscccccssscssscssccccsccccsscsccscccscccccccssssccsccsccccscsscccsssscsccscscscccsccccccscccsccccccccccccsscsccscssssscscccccsssccsscccccsccccsssccscssscccscccsccssccscsccccsscccsssssssccsssccscccccsccccccccsccsscssssssscscssssccscsscsssccccsccccsscscsscscccccccsscccccscsscccsssccscccccsccccsccccsscscscccssssssssssscsccscccccccscccssscssccscsccscscccccsccssccsccscsscsccsccccscccscccccscssscscscc" />
    <use
       x="0"
       y="0"
       xlink:href="#path4789"
       id="use5946"
       transform="matrix(-1,0,0,1,223.22835,-4.085241e-7)"
       width="223.22835"
       height="311.811" />
    <use
       x="0"
       y="0"
       xlink:href="#path4789"
       id="use5948"
       transform="matrix(1,0,0,-1,-2.9993085e-8,311.81099)"
       width="223.22835"
       height="311.811" />
    <use
       x="0"
       y="0"
       xlink:href="#path4789"
       id="use5950"
       transform="rotate(180,111.61418,155.90549)"
       width="223.22835"
       height="311.811" />
  </g>
</svg>
